<svg xmlns="http://www.w3.org/2000/svg" viewBox="0 0 256 256">
  <rect width="256" height="256" fill="#FAFAF7"/>
  <g fill="none" stroke="#2D3748" stroke-width="3" stroke-linecap="round" stroke-linejoin="round">
    <rect x="56" y="56" width="144" height="144" rx="8"/>
  </g>
  <g fill="#4FB8A8">
    <circle cx="80" cy="56" r="5"/>
    <circle cx="105" cy="56" r="5"/>
    <circle cx="130" cy="56" r="5"/>
    <circle cx="155" cy="56" r="5"/>
    <circle cx="200" cy="80" r="5"/>
    <circle cx="200" cy="105" r="5"/>
    <circle cx="200" cy="130" r="5"/>
    <circle cx="200" cy="155" r="5"/>
    <circle cx="80" cy="200" r="5"/>
    <circle cx="105" cy="200" r="5"/>
    <circle cx="130" cy="200" r="5"/>
    <circle cx="155" cy="200" r="5"/>
    <circle cx="56" cy="80" r="5"/>
    <circle cx="56" cy="105" r="5"/>
    <circle cx="56" cy="130" r="5"/>
    <circle cx="56" cy="155" r="5"/>
  </g>
  <g fill="#64748B" font-family="Verdana" font-size="13" text-anchor="middle">
    <text x="128" y="40">in 4s</text>
    <text x="218" y="132">hold 4s</text>
    <text x="128" y="225">out 4s</text>
    <text x="38" y="132" transform="rotate(-90 38 132)">hold 4s</text>
  </g>
</svg>
