<svg xmlns="http://www.w3.org/2000/svg" viewBox="0 0 256 256">
  <rect width="256" height="256" fill="#FAFAF7"/>
  <g fill="none" stroke="#2D3748" stroke-width="3" stroke-linecap="round" stroke-linejoin="round">
    <circle cx="110" cy="70" r="20"/>
    <path d="M 110 90 Q 100 130, 110 160"/>
    <line x1="110" y1="160" x2="160" y2="160"/>
    <line x1="160" y1="160" x2="160" y2="210"/>
    <line x1="110" y1="100" x2="130" y2="130"/>
    <line x1="130" y1="130" x2="140" y2="160"/>
    <line x1="80" y1="165" x2="150" y2="165"/>
    <line x1="90" y1="165" x2="90" y2="210"/>
    <line x1="140" y1="165" x2="140" y2="210"/>
    <line x1="60" y1="210" x2="200" y2="210"/>
  </g>
  <g fill="none" stroke="#4FB8A8" stroke-width="3" stroke-linecap="round">
    <path d="M 90 140 Q 75 160, 90 180"/>
    <polygon points="90,140 85,150 95,145" fill="#4FB8A8"/>
    <polygon points="90,180 85,170 95,175" fill="#4FB8A8"/>
    <circle cx="110" cy="160" r="15" fill="#F4A261" opacity="0.3" stroke="none"/>
  </g>
</svg>
